<?xml version="1.0" standalone="no"?>
<!DOCTYPE svg PUBLIC "-//W3C//DTD SVG 20010904//EN"
 "http://www.w3.org/TR/2001/REC-SVG-20010904/DTD/svg10.dtd">
<svg version="1.0" xmlns="http://www.w3.org/2000/svg"
 width="279.000000pt" height="279.000000pt" viewBox="0 0 279.000000 279.000000"
 preserveAspectRatio="xMidYMid meet">
<metadata>
Created by potrace 1.14, written by Peter Selinger 2001-2017
</metadata>
<g transform="translate(0.000000,279.000000) scale(0.100000,-0.100000)"
fill="#000000" stroke="none">
<path d="M539 2708 c-4 -73 -2 -423 3 -431 5 -8 172 -11 565 -13 518 -1 562
-3 612 -20 96 -33 96 -33 97 -334 1 -305 -2 -317 -77 -355 -58 -30 -89 -33
-394 -40 -132 -3 -278 -7 -325 -10 -293 -14 -485 -174 -556 -462 -4 -15 -9
-256 -11 -535 l-4 -508 221 0 220 0 0 467 0 466 33 43 c17 23 50 53 72 65 37
22 50 23 223 22 101 -1 188 -5 192 -10 4 -4 24 -57 44 -118 20 -60 40 -117 43
-125 3 -8 7 -17 8 -20 11 -38 64 -194 154 -459 61 -179 111 -326 111 -328 0
-2 110 -3 245 -3 135 0 245 2 245 4 0 3 -5 17 -12 33 -6 15 -13 34 -15 41 -1
6 -5 18 -6 25 -2 6 -7 19 -10 27 -3 8 -42 125 -87 260 -45 135 -84 252 -87
260 -4 8 -7 17 -8 20 -8 33 -40 118 -48 128 -5 6 -7 12 -4 12 3 0 -14 59 -39
131 -24 71 -44 134 -44 138 0 5 21 16 48 26 76 29 142 82 211 171 21 27 59
104 76 154 10 30 21 64 26 75 35 88 43 163 42 415 0 344 -6 380 -86 507 -80
129 -225 234 -388 280 -13 4 -309 9 -656 10 -508 3 -633 1 -634 -9z"/>
</g>
</svg>
